<svg width="48" height="48" viewBox="0 0 48 48" fill="none" xmlns="http://www.w3.org/2000/svg">
<path d="M24 34.725C23.6 34.725 23.225 34.663 22.875 34.539C22.525 34.415 22.2 34.202 21.9 33.9L11.1 23.1C10.5 22.5 10.212 21.8 10.236 21C10.26 20.2 10.548 19.5 11.1 18.9C11.7 18.3 12.413 17.988 13.239 17.964C14.065 17.94 14.777 18.227 15.375 18.825L21 24.45V3.00001C21 2.15001 21.288 1.43801 21.864 0.86401C22.44 0.290011 23.152 0.00201034 24 1.03448e-05C24.848 -0.00198965 25.561 0.286011 26.139 0.86401C26.717 1.44201 27.004 2.15401 27 3.00001V24.45L32.625 18.825C33.225 18.225 33.938 17.937 34.764 17.961C35.59 17.985 36.302 18.298 36.9 18.9C37.45 19.5 37.738 20.2 37.764 21C37.79 21.8 37.502 22.5 36.9 23.1L26.1 33.9C25.8 34.2 25.475 34.413 25.125 34.539C24.775 34.665 24.4 34.727 24 34.725ZM6 48C4.35 48 2.938 47.413 1.764 46.239C0.589999 45.065 0.002 43.652 0 42V36C0 35.15 0.288 34.438 0.864 33.864C1.44 33.29 2.152 33.002 3 33C3.848 32.998 4.561 33.286 5.139 33.864C5.71699 34.442 6.004 35.154 6 36V42H42V36C42 35.15 42.288 34.438 42.864 33.864C43.44 33.29 44.152 33.002 45 33C45.848 32.998 46.561 33.286 47.139 33.864C47.717 34.442 48.004 35.154 48 36V42C48 43.65 47.413 45.063 46.239 46.239C45.065 47.415 43.652 48.002 42 48H6Z" fill="url(#paint0_linear_682_2838)"/>
<defs>
<linearGradient id="paint0_linear_682_2838" x1="24" y1="0" x2="24" y2="48" gradientUnits="userSpaceOnUse">
<stop stop-color="#652945"/>
<stop offset="1" stop-color="#085C99"/>
</linearGradient>
</defs>
</svg>
