<svg width="49" height="48" viewBox="0 0 49 48" fill="none" xmlns="http://www.w3.org/2000/svg">
<path d="M24.5 0C37.8296 0 48.4997 11.1085 48.5 24.6416V40.4756C48.4998 45.1479 43.632 48.4805 39.2822 46.2412L39.2803 46.2402C38.74 45.9607 38.1334 45.8341 37.5264 45.873C36.9195 45.9121 36.3339 46.1157 35.834 46.4619L35.832 46.4629C34.3821 47.4636 32.6621 47.9999 30.9004 48C29.1385 48 27.4178 47.4637 25.9678 46.4629V46.4619L25.2178 45.9492L25.2129 45.9443C25.0039 45.7991 24.7545 45.7217 24.5 45.7217C24.2455 45.7217 23.9961 45.7991 23.7871 45.9443L23.7822 45.9492L23.0312 46.4619L23.0322 46.4629C21.5822 47.4637 19.8615 48 18.0996 48C16.3379 47.9999 14.6179 47.4636 13.168 46.4629H13.167C12.6671 46.1167 12.0814 45.9121 11.4746 45.873C10.8679 45.8341 10.2618 45.9611 9.72168 46.2402L9.71973 46.2412C5.36857 48.4801 0.500215 45.1509 0.5 40.4756V24.6396C0.500219 11.1086 11.1705 6.95473e-07 24.5 0ZM11.543 44.8086C11.6427 44.815 11.7421 44.8248 11.8408 44.8379C11.9398 44.851 12.0381 44.8679 12.1357 44.8877C12.7214 45.0065 13.2799 45.2425 13.7744 45.585C15.0461 46.4626 16.5544 46.9335 18.0996 46.9336C19.645 46.9336 21.1539 46.4627 22.4258 45.585L22.8516 45.293L22.4268 45.584C21.1548 46.4619 19.6451 46.9326 18.0996 46.9326C16.5542 46.9325 15.0453 46.4619 13.7734 45.584C13.1143 45.1276 12.343 44.8591 11.543 44.8076C11.443 44.8012 11.343 44.7985 11.2432 44.7988C11.3429 44.7984 11.4431 44.8022 11.543 44.8086ZM37.458 44.8076C36.6575 44.8591 35.8859 45.1272 35.2266 45.584C33.9547 46.4619 32.4458 46.9325 30.9004 46.9326C29.3549 46.9326 27.8452 46.4619 26.5732 45.584L26.1484 45.293L26.5742 45.585C27.8461 46.4627 29.355 46.9336 30.9004 46.9336C32.4456 46.9335 33.9539 46.4626 35.2256 45.585C35.8849 45.1282 36.6576 44.8601 37.458 44.8086C38.2584 44.7572 39.0582 44.9245 39.7705 45.293C39.8459 45.3318 39.9232 45.3656 39.999 45.4004C39.923 45.3655 39.8461 45.3309 39.7705 45.292C39.058 44.9234 38.2585 44.7562 37.458 44.8076ZM4.92383 45.5049C5.52979 45.751 6.18372 45.8842 6.85547 45.8828C6.1838 45.8842 5.52973 45.751 4.92383 45.5049ZM8.80664 45.4863C8.15725 45.7541 7.49861 45.8815 6.85547 45.8828C7.07912 45.8823 7.30476 45.8671 7.53125 45.8359C7.64466 45.8203 7.75836 45.8009 7.87207 45.7773C8.18433 45.7125 8.49611 45.6144 8.80664 45.4863ZM40.1953 45.4863C41.0705 45.8475 41.9632 45.9511 42.8105 45.8398L43.1357 45.7861C42.194 45.9727 41.1833 45.8939 40.1953 45.4863ZM44.376 45.3711C44.1796 45.4656 43.9776 45.5488 43.7705 45.6182C44.0811 45.5141 44.3807 45.3803 44.666 45.2207L44.376 45.3711ZM9.78027 45.0547C9.59297 45.1213 9.40926 45.2001 9.23145 45.292C9.15555 45.331 9.07824 45.3654 9.00195 45.4004C9.07809 45.3655 9.1557 45.3319 9.23145 45.293C9.40942 45.201 9.59275 45.1214 9.78027 45.0547ZM1.56641 40.4756C1.56652 42.5688 2.71809 44.3183 4.33496 45.2217L4.05469 45.0527C2.58667 44.1103 1.56641 42.4448 1.56641 40.4746V40.4756ZM47.0332 42.54C46.6055 43.5915 45.8636 44.4636 44.9463 45.0527L45.2158 44.8682C46.0086 44.2881 46.6482 43.4873 47.0332 42.541V42.54ZM24.5 44.6543C24.0507 44.6543 23.6119 44.7855 23.2363 45.0303C23.6118 44.7857 24.0509 44.6553 24.5 44.6553C24.9488 44.6553 25.3874 44.786 25.7627 45.0303C25.3873 44.7858 24.949 44.6543 24.5 44.6543ZM10.6035 44.8486C10.4488 44.8719 10.2959 44.9048 10.1445 44.9443C10.2959 44.9048 10.4488 44.8719 10.6035 44.8486ZM24.5 5.33301C14.2637 5.33301 5.83323 13.9037 5.83301 24.6396V40.4756C5.8332 41.406 6.69497 41.7988 7.27734 41.499L7.54102 41.3691C8.87093 40.7388 10.3406 40.4558 11.8125 40.5498C13.2841 40.6438 14.7056 41.1113 15.9443 41.9053L16.1904 42.0674L16.1924 42.0693C16.7526 42.4574 17.4182 42.6659 18.0996 42.666C18.7812 42.666 19.4466 42.4574 20.0068 42.0693L20.0127 42.0664L20.7656 41.5498C21.8639 40.793 23.1662 40.3877 24.5 40.3877L24.75 40.3926C25.9965 40.4399 27.2056 40.8409 28.2354 41.5508H28.2363L28.9893 42.0693L28.9932 42.0723C29.5533 42.4602 30.219 42.668 30.9004 42.668C31.5818 42.6679 32.2474 42.4603 32.8076 42.0723L32.8096 42.0713C34.1041 41.1775 35.6167 40.6515 37.1865 40.5508C38.7564 40.4501 40.3246 40.7779 41.7227 41.499L41.835 41.5469C42.4076 41.7468 43.1668 41.3479 43.167 40.4756V24.6396C43.1668 13.9037 34.7363 5.33301 24.5 5.33301ZM7.5498 42.54C7.52791 42.5482 7.50639 42.5571 7.48438 42.5645C7.50639 42.5571 7.52792 42.5482 7.5498 42.54ZM8.07031 42.2979C8.03132 42.3158 7.99282 42.3349 7.9541 42.3535C7.99282 42.3349 8.03132 42.3158 8.07031 42.2979ZM41.002 42.332C41.0167 42.339 41.0312 42.3464 41.0459 42.3535C40.9538 42.3092 40.8612 42.2661 40.7676 42.2256L41.002 42.332ZM47.4336 40.4746C47.4336 41.0901 47.3341 41.6764 47.1523 42.2197L47.251 41.8896C47.3696 41.4418 47.4336 40.9679 47.4336 40.4756V40.4746ZM31.1445 28.793C31.3557 28.8217 31.5597 28.8925 31.7432 29.001C31.9266 29.1094 32.0868 29.2537 32.2139 29.4248C32.3409 29.5959 32.4327 29.7911 32.4834 29.998C32.534 30.2048 32.5422 30.4196 32.5088 30.6299C32.4753 30.8404 32.4006 31.0426 32.2881 31.2236C32.1755 31.4046 32.0275 31.5614 31.8535 31.6846C29.73 33.2714 27.1509 34.1306 24.5 34.1338C21.8491 34.1306 19.27 33.2714 17.1465 31.6846C16.9725 31.5614 16.8245 31.4046 16.7119 31.2236C16.5994 31.0426 16.5247 30.8404 16.4912 30.6299C16.4578 30.4196 16.466 30.2048 16.5166 29.998C16.5673 29.7911 16.6591 29.5959 16.7861 29.4248C16.9132 29.2537 17.0733 29.1094 17.2568 29.001C17.4403 28.8925 17.6443 28.8217 17.8555 28.793C18.0665 28.7643 18.2816 28.7776 18.4873 28.833C18.693 28.8884 18.8856 28.9854 19.0537 29.1162C20.6257 30.2932 22.5362 30.9307 24.5 30.9336C26.4638 30.9307 28.3743 30.2932 29.9463 29.1162C30.1144 28.9854 30.307 28.8884 30.5127 28.833C30.7184 28.7776 30.9335 28.7643 31.1445 28.793ZM4.79199 23.5869H4.79297H4.79199ZM18.0996 15.4668C19.2772 15.4668 20.2334 16.9006 20.2334 18.667C20.2333 20.4333 19.2771 21.8672 18.0996 21.8672C16.9222 21.8669 15.9669 20.4331 15.9668 18.667C15.9668 16.9008 16.9222 15.4671 18.0996 15.4668ZM30.9004 15.4668C32.0778 15.4671 33.0332 16.9008 33.0332 18.667C33.0331 20.4331 32.0777 21.8669 30.9004 21.8672C29.7229 21.8672 28.7667 20.4333 28.7666 18.667C28.7666 16.9006 29.7228 15.4668 30.9004 15.4668ZM43.8301 20.5215L43.8311 20.5205L43.8301 20.5215ZM43.0312 17.6162V17.6172V17.6162ZM36.6641 8.59863C38.6539 10.2082 40.3385 12.204 41.6094 14.4795C41.8477 14.9062 42.0718 15.3425 42.2803 15.7881V15.7871C40.8902 12.8168 38.8223 10.2518 36.2881 8.30078L36.6641 8.59863ZM12.3359 8.59766C10.5947 10.0062 9.0878 11.7109 7.88672 13.6396C9.17348 11.5735 10.8111 9.76408 12.7119 8.30078L12.3359 8.59766ZM20.5361 4.67773C17.8125 5.25204 15.2893 6.40679 13.0957 8.0127L13.4863 7.73438C14.0114 7.36921 14.5543 7.02948 15.1133 6.7168C15.2532 6.63853 15.3942 6.56215 15.5361 6.4873C17.2373 5.59012 19.0799 4.9399 21.0186 4.58301L20.5361 4.67773ZM28.4639 4.67871C30.2261 5.0503 31.9044 5.66486 33.4639 6.4873C33.6058 6.56215 33.7468 6.63853 33.8867 6.7168C34.5855 7.10765 35.2593 7.5405 35.9043 8.0127L35.5137 7.7334C33.2819 6.18126 30.7279 5.08863 27.9814 4.58301L28.4639 4.67871ZM24.5 4.26562C23.6518 4.26562 22.8159 4.32211 21.9951 4.42969C22.8158 4.32212 23.6519 4.2666 24.5 4.2666C25.3481 4.2666 26.1842 4.32115 27.0049 4.42871C26.1842 4.32115 25.3481 4.26563 24.5 4.26562Z" fill="url(#paint0_linear_683_2859)"/>
<defs>
<linearGradient id="paint0_linear_683_2859" x1="24.5" y1="0" x2="24.5" y2="48" gradientUnits="userSpaceOnUse">
<stop stop-color="#652945"/>
<stop offset="1" stop-color="#085C99"/>
</linearGradient>
</defs>
</svg>
