<svg width="50" height="45" viewBox="0 0 50 45" fill="none" xmlns="http://www.w3.org/2000/svg">
<path fill-rule="evenodd" clip-rule="evenodd" d="M16.25 0C17.9076 0 19.4973 0.65848 20.6694 1.83058C21.8415 3.00269 22.5 4.5924 22.5 6.25V10H27.5V6.25C27.4998 4.6632 28.1031 3.13572 29.1876 1.97739C30.2721 0.819052 31.7566 0.116594 33.34 0.0125003L33.8975 0C35.4711 0.000495338 37.0046 0.495915 38.2811 1.41613C39.5575 2.33634 40.5122 3.63473 41.01 5.1275L49.015 29.14C49.7012 30.6701 50.0367 32.3342 49.9968 34.0106C49.957 35.6871 49.5429 37.3334 48.7849 38.8292C48.0268 40.3249 46.944 41.6323 45.6155 42.6557C44.2871 43.679 42.7467 44.3925 41.107 44.7438C39.4674 45.0952 37.7699 45.0755 36.1388 44.6863C34.5077 44.297 32.9842 43.5481 31.6798 42.4942C30.3755 41.4404 29.3232 40.1082 28.6 38.5953C27.8768 37.0824 27.501 35.4269 27.5 33.75V15H22.5V33.75C22.499 35.4269 22.1232 37.0824 21.4 38.5953C20.6768 40.1082 19.6245 41.4404 18.3202 42.4942C17.0158 43.5481 15.4923 44.297 13.8612 44.6863C12.2301 45.0755 10.5327 45.0952 8.89297 44.7438C7.25329 44.3925 5.71289 43.679 4.38446 42.6557C3.05603 41.6323 1.97318 40.3249 1.21513 38.8292C0.457072 37.3334 0.0429892 35.6871 0.00317216 34.0106C-0.0366449 32.3342 0.298811 30.6701 0.984999 29.14L8.9875 5.1275C9.46087 3.70861 10.3477 2.46367 11.534 1.55265C12.7204 0.641628 14.152 0.106144 15.645 0.0150001L16.25 0ZM11.25 27.5C10.0794 27.4995 8.93214 27.8278 7.93897 28.4475C6.94581 29.0672 6.14664 29.9533 5.6325 31.005C5.3275 31.92 5 32.7725 5 33.75C5 34.9861 5.36656 36.1945 6.05331 37.2223C6.74007 38.2501 7.71619 39.0512 8.85823 39.5242C10.0003 39.9973 11.2569 40.1211 12.4693 39.8799C13.6817 39.6388 14.7953 39.0435 15.6694 38.1694C16.5435 37.2953 17.1388 36.1817 17.3799 34.9693C17.6211 33.7569 17.4973 32.5003 17.0242 31.3582C16.5512 30.2162 15.7501 29.2401 14.7223 28.5533C13.6945 27.8666 12.4861 27.5 11.25 27.5ZM38.75 27.5C37.5139 27.5 36.3055 27.8666 35.2777 28.5533C34.2499 29.2401 33.4488 30.2162 32.9758 31.3582C32.5027 32.5003 32.3789 33.7569 32.6201 34.9693C32.8613 36.1817 33.4565 37.2953 34.3306 38.1694C35.2047 39.0435 36.3183 39.6388 37.5307 39.8799C38.7431 40.1211 39.9997 39.9973 41.1418 39.5242C42.2838 39.0512 43.2599 38.2501 43.9467 37.2223C44.6335 36.1945 45 34.9861 45 33.75C45 32.775 44.6725 31.92 44.3675 31.005C43.8534 29.9533 43.0542 29.0672 42.061 28.4475C41.0679 27.8278 39.9206 27.4995 38.75 27.5ZM16.25 5C15.125 5 14.1 5.6075 13.7325 6.71L8.3425 22.88C9.88883 22.4665 11.5056 22.3878 13.0848 22.649C14.664 22.9103 16.1692 23.5055 17.5 24.395V6.25C17.5 5.91848 17.3683 5.60054 17.1339 5.36612C16.8995 5.1317 16.5815 5 16.25 5ZM33.8975 5C33.1675 5 32.5 5.4575 32.5 6.25V24.395C33.8308 23.5055 35.336 22.9103 36.9152 22.649C38.4944 22.3878 40.1112 22.4665 41.6575 22.88L36.2675 6.71C36.1016 6.21199 35.7832 5.77882 35.3574 5.47189C34.9315 5.16497 34.4199 4.99987 33.895 5H33.8975Z" fill="url(#paint0_linear_682_2840)"/>
<path d="M33.8976 0C35.4711 0.000538808 37.0047 0.495842 38.2811 1.41602C39.5574 2.3361 40.5116 3.63448 41.0094 5.12695L49.0148 29.1394C49.701 30.6695 50.036 32.3348 49.9962 34.0112C49.9563 35.6874 49.5432 37.3338 48.7853 38.8294C48.0272 40.3251 46.9436 41.6329 45.6151 42.6563C44.2868 43.6794 42.7465 44.3924 41.1071 44.7437C39.4674 45.095 37.7699 45.0755 36.1388 44.6863C34.5077 44.2971 32.9839 43.5478 31.6796 42.4939C30.3753 41.4401 29.3229 40.1078 28.5997 38.595C27.8766 37.0821 27.5009 35.4268 27.4999 33.75V15H22.4999V33.75C22.4989 35.4268 22.1231 37.0821 21.4 38.595C20.6769 40.1078 19.6244 41.4401 18.3202 42.4939C17.0158 43.5478 15.4921 44.2971 13.861 44.6863C12.2299 45.0755 10.5323 45.095 8.8927 44.7437C7.25328 44.3924 5.71292 43.6794 4.38465 42.6563C3.05622 41.6329 1.97253 40.3251 1.21448 38.8294C0.456535 37.3338 0.0434443 35.6874 0.00354149 34.0112C-0.0362756 32.3348 0.298799 30.6695 0.984987 29.1394L8.98792 5.12695C9.46135 3.70833 10.3482 2.46362 11.5343 1.55273C12.7205 0.6419 14.1517 0.105866 15.6444 0.0146484L16.2499 0C17.9075 3.15705e-07 19.4967 0.658953 20.6688 1.83106C21.8409 3.00316 22.4999 4.5924 22.4999 6.25V10H27.4999V6.25C27.4996 4.66338 28.1026 3.13583 29.1869 1.97754C30.2714 0.819237 31.7564 0.116332 33.3397 0.012207L33.8976 0ZM33.3715 0.635986C31.9499 0.731819 30.6174 1.36457 29.6434 2.40479C28.6675 3.44726 28.1247 4.82201 28.1249 6.25V10.625H21.8749V6.25C21.8749 4.75816 21.2818 3.32784 20.2269 2.27295C19.1738 1.21978 17.7464 0.626937 16.2572 0.625L15.6713 0.638428C14.307 0.72403 12.9995 1.21578 11.9152 2.04834C10.8278 2.88335 10.0139 4.02424 9.57996 5.32471L1.57825 29.3372L1.56848 29.3677L1.55506 29.3958C0.907061 30.8407 0.589786 32.4122 0.627321 33.9954C0.664922 35.5785 1.05654 37.1336 1.77234 38.5461C2.48826 39.9588 3.51093 41.1942 4.76551 42.1607C6.02004 43.1271 7.47486 43.8015 9.02332 44.1333C10.5718 44.4651 12.1753 44.4459 13.7157 44.0784C15.2562 43.7108 16.6952 43.0034 17.9271 42.0081C19.159 41.0127 20.153 39.7541 20.8361 38.3252C21.4336 37.075 21.7799 35.7218 21.8578 34.342L21.8749 33.75V14.375H28.1249V33.75L28.142 34.342C28.2198 35.7218 28.5662 37.075 29.1637 38.3252C29.8467 39.7541 30.8407 41.0127 32.0726 42.0081C33.3045 43.0033 34.7436 43.7108 36.2841 44.0784C37.8244 44.4459 39.428 44.4651 40.9765 44.1333C42.5249 43.8015 43.9797 43.1271 45.2343 42.1607C46.4888 41.1942 47.5115 39.9588 48.2274 38.5461C48.9432 37.1336 49.3348 35.5785 49.3724 33.9954C49.41 32.4122 49.0927 30.8407 48.4447 29.3958L48.4313 29.3677L48.4215 29.3372L40.4174 5.32471C39.961 3.95648 39.0849 2.76607 37.9149 1.92261C36.7471 1.08086 35.3444 0.62707 33.9049 0.625L33.3715 0.635986ZM11.505 26.8799C12.7753 26.9271 14.0097 27.3254 15.0695 28.0335C16.2001 28.7889 17.0808 29.8631 17.6012 31.1194C18.1215 32.3756 18.2583 33.758 17.993 35.0916C17.7277 36.4251 17.0721 37.6494 16.1107 38.6108C15.1493 39.5723 13.925 40.2279 12.5914 40.4932C11.2579 40.7584 9.87546 40.6216 8.61927 40.1013C7.36302 39.581 6.28876 38.7002 5.53333 37.5696C4.77792 36.439 4.37488 35.1097 4.37488 33.75C4.37488 32.6471 4.74753 31.6811 5.03894 30.8069L5.05237 30.7678L5.07068 30.73C5.63624 29.5733 6.51615 28.5991 7.60852 27.9175C8.70087 27.236 9.96238 26.8745 11.2499 26.875L11.505 26.8799ZM38.7499 26.875C40.0374 26.8745 41.2989 27.236 42.3912 27.9175C43.3471 28.5139 44.14 29.3344 44.702 30.3052L44.9291 30.73L44.9474 30.7678L44.9608 30.8069C45.2523 31.6814 45.6249 32.6496 45.6249 33.75C45.6249 35.1097 45.2218 36.439 44.4664 37.5696C43.711 38.7002 42.6367 39.581 41.3805 40.1013C40.1243 40.6216 38.7419 40.7584 37.4083 40.4932C36.0748 40.2279 34.8505 39.5723 33.889 38.6108C32.9276 37.6494 32.272 36.4251 32.0067 35.0916C31.7415 33.758 31.8783 32.3756 32.3986 31.1194C32.9189 29.8631 33.7997 28.7889 34.9303 28.0335C36.0609 27.278 37.3902 26.875 38.7499 26.875ZM11.2499 27.5C10.0794 27.4995 8.93239 27.8278 7.93933 28.4473C6.94624 29.0669 6.14635 29.9531 5.6322 31.0046C5.3272 31.9196 4.99988 32.7725 4.99988 33.75C4.99988 34.9861 5.36659 36.1951 6.05335 37.2229C6.74009 38.2505 7.71666 39.051 8.85852 39.5239C10.0005 39.9969 11.2571 40.1215 12.4694 39.8804C13.6817 39.6392 14.7948 39.043 15.6688 38.169C16.5429 37.2949 17.1391 36.1818 17.3803 34.9695C17.6214 33.7572 17.4968 32.5006 17.0238 31.3586C16.5508 30.2168 15.7504 29.2402 14.7228 28.5535C13.695 27.8667 12.486 27.5 11.2499 27.5ZM38.7499 27.5C37.5138 27.5 36.3048 27.8667 35.277 28.5535C34.2494 29.2402 33.4489 30.2168 32.976 31.3586C32.503 32.5006 32.3784 33.7572 32.6195 34.9695C32.8607 36.1818 33.4569 37.2949 34.3309 38.169C35.205 39.043 36.3181 39.6392 37.5304 39.8804C38.7427 40.1215 39.9993 39.9969 41.1412 39.5239C42.2831 39.051 43.2597 38.2505 43.9464 37.2229C44.6332 36.1951 44.9999 34.9861 44.9999 33.75C44.9999 32.775 44.6726 31.9196 44.3676 31.0046C43.8534 29.9531 43.0535 29.0669 42.0604 28.4473C41.0674 27.8278 39.9203 27.4995 38.7499 27.5ZM16.2499 4.375C16.7472 4.375 17.2239 4.57269 17.5756 4.92432C17.9272 5.27595 18.1249 5.75272 18.1249 6.25V25.564L17.152 24.9146C15.8952 24.0747 14.4733 23.5121 12.9821 23.2654C11.4908 23.0188 9.96352 23.0934 8.5033 23.4839L7.38269 23.7842L7.7489 22.6819L13.1395 6.51245C13.6063 5.11208 14.9037 4.375 16.2499 4.375ZM33.8976 4.375C34.5526 4.37544 35.1911 4.58161 35.7225 4.9646C36.2548 5.34823 36.6529 5.88997 36.8602 6.51245L42.2509 22.6819L42.6171 23.7842L41.4965 23.4839C40.0363 23.0934 38.509 23.0188 37.0177 23.2654C35.5264 23.5121 34.1045 24.0747 32.8478 24.9146L31.8749 25.564V6.25C31.8749 5.0064 32.9389 4.375 33.8976 4.375ZM16.2499 5C15.1249 5 14.1003 5.60771 13.7328 6.71021L8.34217 22.8796C9.88847 22.4662 11.5054 22.3877 13.0846 22.6489C14.6637 22.9102 16.1692 23.5052 17.4999 24.3945V6.25C17.4999 5.91848 17.3681 5.60063 17.1337 5.36621C16.8993 5.13179 16.5814 5 16.2499 5ZM33.8951 5C33.166 5.00093 32.4999 5.45831 32.4999 6.25V24.3945C33.8306 23.5052 35.3361 22.9102 36.9152 22.6489C38.4943 22.3877 40.1113 22.4662 41.6576 22.8796L36.267 6.71021C36.1012 6.21236 35.7832 5.77932 35.3576 5.47241C34.9318 5.16554 34.42 4.99993 33.8951 5Z" fill="url(#paint1_linear_682_2840)"/>
<defs>
<linearGradient id="paint0_linear_682_2840" x1="25" y1="0" x2="25" y2="44.9935" gradientUnits="userSpaceOnUse">
<stop stop-color="#652945"/>
<stop offset="1" stop-color="#085C99"/>
</linearGradient>
<linearGradient id="paint1_linear_682_2840" x1="24.9999" y1="0" x2="24.9999" y2="44.9934" gradientUnits="userSpaceOnUse">
<stop stop-color="#652945"/>
<stop offset="1" stop-color="#085C99"/>
</linearGradient>
</defs>
</svg>
