<svg width="48" height="42" viewBox="0 0 48 42" fill="none" xmlns="http://www.w3.org/2000/svg">
<path d="M48 4.27953C47.9956 3.79934 47.8941 3.325 47.7017 2.88505C47.5092 2.44511 47.2297 2.04865 46.88 1.71953C46.5251 1.3894 46.1052 1.13704 45.6472 0.978611C45.1891 0.820185 44.703 0.759189 44.22 0.799533C30.7734 2.0004 17.2466 2.0004 3.8 0.799533C3.31366 0.75506 2.82341 0.814046 2.3615 0.972612C1.89959 1.13118 1.47648 1.38573 1.12 1.71953C0.770305 2.04865 0.490809 2.44511 0.298332 2.88505C0.105855 3.325 0.00437522 3.79934 0 4.27953L0 29.1195C0.00437522 29.5997 0.105855 30.0741 0.298332 30.514C0.490809 30.954 0.770305 31.3504 1.12 31.6795C1.47691 32.0066 1.89711 32.257 2.35464 32.4153C2.81216 32.5735 3.29728 32.6362 3.78 32.5995C10.14 32.0995 15.14 31.7995 20.48 31.7195C20.6143 31.7164 20.7478 31.7414 20.8718 31.7931C20.9959 31.8448 21.1077 31.9219 21.2 32.0195C21.2961 32.1088 21.3724 32.2172 21.4241 32.3378C21.4757 32.4583 21.5016 32.5884 21.5 32.7195V35.2195C21.5 35.4848 21.3946 35.7391 21.2071 35.9266C21.0196 36.1142 20.7652 36.2195 20.5 36.2195H14C13.337 36.2195 12.7011 36.4829 12.2322 36.9518C11.7634 37.4206 11.5 38.0565 11.5 38.7195C11.5 39.3826 11.7634 40.0185 12.2322 40.4873C12.7011 40.9561 13.337 41.2195 14 41.2195H34C34.663 41.2195 35.2989 40.9561 35.7678 40.4873C36.2366 40.0185 36.5 39.3826 36.5 38.7195C36.5 38.0565 36.2366 37.4206 35.7678 36.9518C35.2989 36.4829 34.663 36.2195 34 36.2195H27.5C27.2348 36.2195 26.9804 36.1142 26.7929 35.9266C26.6054 35.7391 26.5 35.4848 26.5 35.2195V32.7195C26.4984 32.5884 26.5243 32.4583 26.5759 32.3378C26.6276 32.2172 26.7039 32.1088 26.8 32.0195C26.8923 31.9219 27.0041 31.8448 27.1282 31.7931C27.2522 31.7414 27.3857 31.7164 27.52 31.7195C32.86 31.7195 37.88 32.0995 44.22 32.5995C44.7009 32.6381 45.1847 32.5769 45.6408 32.4196C46.0969 32.2624 46.5156 32.0125 46.8706 31.6857C47.2256 31.3589 47.5091 30.9622 47.7035 30.5206C47.8978 30.079 47.9988 29.602 48 29.1195V4.27953ZM43 26.4195C43.0006 26.5554 42.9724 26.6898 42.9173 26.8139C42.8621 26.938 42.7812 27.049 42.68 27.1395C42.5799 27.2366 42.4605 27.3117 42.3296 27.3599C42.1987 27.4081 42.0592 27.4284 41.92 27.4195C29.9661 26.4545 17.9539 26.4545 6 27.4195C5.8608 27.4284 5.72127 27.4081 5.59038 27.3599C5.4595 27.3117 5.34015 27.2366 5.24 27.1395C5.13876 27.049 5.05789 26.938 5.00273 26.8139C4.94757 26.6898 4.91937 26.5554 4.92 26.4195V6.99953C4.91937 6.86371 4.94757 6.72931 5.00273 6.60519C5.05789 6.48108 5.13876 6.37008 5.24 6.27953C5.33842 6.17884 5.45699 6.10007 5.58796 6.04837C5.71893 5.99667 5.85934 5.97321 6 5.97953C17.9806 6.94538 30.0194 6.94538 42 5.97953C42.1392 5.97062 42.2787 5.99092 42.4096 6.03915C42.5405 6.08737 42.6599 6.16244 42.76 6.25953C42.8494 6.3593 42.917 6.47669 42.9583 6.60413C42.9997 6.73158 43.0138 6.86627 43 6.99953V26.4195Z" fill="url(#paint0_linear_682_2836)"/>
<defs>
<linearGradient id="paint0_linear_682_2836" x1="24" y1="0.785156" x2="24" y2="41.2195" gradientUnits="userSpaceOnUse">
<stop stop-color="#652945"/>
<stop offset="1" stop-color="#085C99"/>
</linearGradient>
</defs>
</svg>
