<svg xmlns="http://www.w3.org/2000/svg" xml:space="preserve" width="418" height="328"><path fill="#00c64b" d="M212.34 0c-28.45 0-54.23 11.59-72.91 30.29-3.74-.43-7.71-.63-11.92-.63H107.6v1.67c1.12.29 2.44.98 3.97 2.09 1.4 1.13 3.09 2.7 5.04 4.73s4.27 5 6.93 8.92c3.36 5.01 6.98 11.25 10.9 18.66 3.92 7.4 7.93 15.37 12.06 23.9 4.12 8.53 8.23 17.25 12.26 26.2 4.05 8.96 7.9 17.42 11.55 25.37 3.61 7.97 6.91 15.08 9.83 21.29 2.95 6.22 5.39 10.86 7.34 13.94h14.69l24.32-84.92c3.92 8.38 7.78 16.99 11.63 25.81 3.86 8.8 7.48 17.08 10.91 24.82 3.41 7.76 6.52 14.66 9.33 20.68 2.8 5.98 5.17 10.52 7.13 13.6h.2c-14.97 10.92-33.43 17.38-53.34 17.38-50.05 0-90.78-40.72-90.78-90.78 0-11.46 2.14-22.42 6.04-32.54-2.68-4.78-5.2-9.01-7.62-12.59-.05-.07-.08-.14-.14-.24-6.76 13.7-10.53 29.11-10.53 45.37 0 56.82 46.2 103.07 103.04 103.07 56.81 0 103.04-46.26 103.04-103.07S269.14 0 212.34 0m53.03 74.84c-2.72-5.38-5.48-10.45-8.3-15.21-2.79-4.74-5.43-8.65-7.95-11.74-3.66-4.33-7.23-7.71-10.8-10.15-3.58-2.46-7.33-4.26-11.21-5.44-3.92-1.2-8.01-1.93-12.28-2.22-4.26-.27-8.89-.42-13.94-.42h-15.31v1.67c1.53.14 3.21.82 5.02 2.09 1.53 1.13 3.44 2.81 5.67 5.04 2.25 2.26 4.62 5.4 7.14 9.43 3.2 5.33 6.68 11.33 10.38 18.04 3.71 6.7 7.58 14.47 11.61 23.27l-11.94 39.65c-1.4-1.98-3.1-4.93-5.13-8.93-2.03-3.97-4.24-8.52-6.72-13.62-2.43-5.1-5.06-10.53-7.84-16.26-2.79-5.73-5.6-11.33-8.39-16.86-2.8-5.54-5.51-10.75-8.18-15.62-2.68-4.91-5.11-9.03-7.33-12.38-3.83-5.63-9.04-9.55-15.66-11.82 15.75-13.15 36.02-21.09 58.12-21.09 50.05 0 90.76 40.72 90.76 90.77 0 7.84-.98 15.45-2.88 22.7-2.87 6.82-7.66.79-7.66.79-1.27-1.24-2.87-3.67-4.85-7.24-1.96-3.57-4.12-7.76-6.48-12.58-2.39-4.82-4.95-9.98-7.66-15.51-2.74-5.54-5.48-10.98-8.19-16.36M7.14 320.46h404.15v-70.64H7.14zm411.27 7.14H0v-84.92h418.41z" class="st0"/><path fill="#00c64b" d="m56.91 308.34-4.36-24.56-4.45 24.56H34.93l-10.77-45.5h13.78l4.36 26.07 5.33-26.07h9.75l5.4 26.07 4.3-26.07h13.77l-10.7 45.5zm41.41-32.21-3.56 15.09h7.11zm7.36 32.21-1.36-5.86h-12l-1.37 5.86H77.04l13.5-45.5h15.55l13.52 45.5zm19.22 0V274.1h-9.49v-11.26h31.86v11.26h-9.48v34.24zm24.84 0v-45.5h28.8v11.26h-15.9v5.6h15.42v11.24h-15.42v6.15h15.9v11.25zm56.34-30.08c0-2.73-1.92-4.16-4.38-4.16h-5.11v8.26h5.11c2.46 0 4.38-1.45 4.38-4.1m-.89 30.08-5.25-14.73h-3.35v14.73H183.7v-45.5h20.12c9.42 0 15.36 6.76 15.36 15.15 0 7.64-3.82 11.54-6.89 13.23l7.17 17.12zm41.25-14.32c0-2.04-1.38-3.08-3.48-3.08h-6.76v6.15h6.76c2.11 0 3.48-.95 3.48-3.07m-.75-17.13c0-1.91-1.17-2.79-3.07-2.79h-6.41v5.6h6.41c1.9 0 3.07-.83 3.07-2.81m-22.39 31.45v-45.5h22.65c9.22 0 12.91 6.14 12.91 11.6 0 5.66-3.35 9.48-7.72 10.43 4.85.76 8.46 5.32 8.46 11.13 0 6.48-3.89 12.34-12.82 12.34zm66.54-22.71c0-7.17-2.79-12.14-7.77-12.14-5.05 0-7.78 4.97-7.78 12.14 0 7.1 2.73 12.14 7.78 12.14 4.98 0 7.77-5.04 7.77-12.14m-28.71 0c0-13.92 8.11-23.54 20.94-23.54 12.82 0 20.88 9.62 20.88 23.54s-8.06 23.54-20.88 23.54c-12.83 0-20.94-9.62-20.94-23.54m79.99 22.71v-24.35l-8.39 24.35h-4.91l-8.32-24.35v24.35h-12.9v-45.5h16.85l6.82 19.92 6.89-19.92h16.79v45.5zm41.77-14.32c0-2.04-1.36-3.08-3.47-3.08h-6.76v6.15h6.76c2.11 0 3.47-.95 3.47-3.07m-.75-17.13c0-1.91-1.15-2.79-3.07-2.79h-6.41v5.6h6.41c1.92 0 3.07-.83 3.07-2.81m-22.37 31.45v-45.5h22.65c9.2 0 12.89 6.14 12.89 11.6 0 5.66-3.34 9.48-7.7 10.43 4.83.76 8.46 5.32 8.46 11.13 0 6.48-3.88 12.34-12.83 12.34z" class="st0"/></svg>